<?xml version="1.0" standalone="no"?>
<!DOCTYPE svg PUBLIC "-//W3C//DTD SVG 20010904//EN"
 "http://www.w3.org/TR/2001/REC-SVG-20010904/DTD/svg10.dtd">
<svg version="1.0" xmlns="http://www.w3.org/2000/svg"
 width="92.000000pt" height="98.000000pt" viewBox="0 0 92.000000 98.000000"
 preserveAspectRatio="xMidYMid meet">
<metadata>
Created by potrace 1.10, written by Peter Selinger 2001-2011
</metadata>
<g transform="translate(0.000000,98.000000) scale(0.100000,-0.100000)"
fill="#ffa200" stroke="none">
<path d="M395 908 c-57 -20 -135 -95 -135 -130 0 -5 88 -8 195 -8 151 0 195 3
195 13 0 7 -12 30 -26 51 -46 67 -151 101 -229 74z m118 -21 c9 -2 34 -19 54
-38 21 -19 31 -25 23 -15 -10 13 -10 17 -3 12 7 -4 17 -16 23 -26 10 -18 4
-19 -153 -22 l-163 -3 10 22 c7 13 13 17 17 11 4 -6 10 -1 14 11 4 14 12 20
21 17 8 -3 12 -2 9 4 -3 5 5 14 17 21 20 11 22 11 10 -3 -11 -13 -11 -18 0
-24 7 -4 10 -3 5 1 -4 5 1 17 10 28 17 18 21 19 106 4z"/>
<path d="M370 836 c0 -2 7 -7 16 -10 8 -3 12 -2 9 4 -6 10 -25 14 -25 6z"/>
<path d="M250 698 c1 -46 10 -64 50 -91 20 -14 49 -17 160 -17 l136 0 31 30
c27 27 43 66 43 106 0 11 -38 14 -210 14 l-210 0 0 -42z m393 7 c9 -21 -14
-67 -29 -61 -8 3 -16 0 -20 -6 -4 -7 -3 -8 4 -4 7 4 12 2 12 -3 0 -13 7 -12
-152 -15 -125 -3 -134 -1 -128 29 1 6 -4 4 -11 -2 -15 -15 -33 -17 -24 -3 3 6
2 10 -3 10 -14 0 -21 35 -11 52 13 23 354 26 362 3z"/>
<path d="M251 568 c4 -23 8 -48 9 -54 0 -6 18 -32 40 -57 40 -45 41 -47 24
-72 -14 -22 -32 -30 -56 -26 -5 0 -8 -17 -8 -39 0 -29 -4 -40 -15 -40 -17 0
-20 -16 -5 -25 16 -10 45 28 44 57 -1 24 1 26 14 15 9 -6 13 -7 10 -2 -3 6 7
24 23 40 23 24 29 26 29 13 0 -10 4 -18 9 -18 5 0 7 9 4 20 -4 15 0 20 16 20
24 0 27 -10 9 -29 -11 -11 -10 -13 2 -9 13 5 16 -4 16 -53 0 -52 -2 -59 -21
-60 -26 -1 -94 -8 -122 -12 -13 -2 -26 -7 -30 -12 -5 -4 -2 -5 5 -1 6 4 12 2
12 -3 0 -6 -5 -11 -10 -11 -6 0 -5 -9 2 -21 10 -16 10 -23 1 -26 -8 -3 -9 -13
-3 -34 5 -16 6 -29 2 -29 -4 0 -2 -4 5 -8 7 -4 -14 -8 -47 -8 -56 -1 -73 6
-50 21 26 16 -2 63 -33 56 -5 -1 -6 3 -2 9 5 8 11 7 21 -1 9 -7 14 -8 13 -3
-1 5 1 17 5 26 5 10 2 26 -8 40 -21 30 -20 37 4 31 11 -3 20 0 20 6 0 9 5 9
21 0 15 -8 19 -8 15 0 -4 6 -2 11 3 11 6 0 11 16 11 35 0 32 -2 35 -31 35 -28
0 -30 -2 -27 -32 2 -24 -1 -33 -12 -33 -9 0 -16 11 -18 28 -2 15 -7 27 -12 27
-17 0 -70 -72 -70 -95 0 -23 4 -25 45 -25 33 0 45 -4 45 -15 0 -11 -12 -15
-50 -15 -47 0 -50 -2 -50 -25 0 -23 3 -25 50 -25 38 0 50 -4 50 -15 0 -11 -12
-15 -50 -15 -47 0 -50 -2 -50 -25 l0 -25 195 0 c164 0 195 2 195 15 0 11 -18
15 -82 17 l-83 3 1 60 1 60 82 3 81 3 0 79 c0 64 3 80 15 80 12 0 15 -16 15
-80 l0 -80 85 0 86 0 -3 -62 -3 -63 -82 -3 c-65 -2 -83 -6 -83 -17 0 -13 31
-15 195 -15 l195 0 0 25 c0 23 -3 25 -51 25 -66 0 -62 24 4 28 42 3 47 6 47
28 0 22 -4 24 -50 24 -38 0 -50 4 -50 15 0 11 12 15 50 15 28 0 50 5 50 10 0
24 -30 79 -51 94 -33 23 -39 20 -39 -14 0 -20 -5 -30 -15 -30 -10 0 -15 11
-15 35 0 32 -2 35 -31 35 -27 0 -30 -3 -26 -23 7 -26 -6 -52 -22 -43 -6 4 -11
21 -11 37 0 21 -6 32 -22 38 -13 5 -31 18 -42 30 -18 20 -18 21 11 48 38 36
61 79 69 134 6 39 5 43 -8 31 -9 -7 -18 -28 -21 -48 -17 -106 -136 -174 -241
-138 -65 23 -111 79 -123 149 -2 11 -10 26 -17 33 -12 12 -12 7 -5 -30z m308
-174 c4 3 12 -4 19 -15 7 -10 8 -18 3 -17 -5 2 -8 -1 -7 -7 0 -5 5 -9 9 -7 16
5 47 -19 47 -37 0 -10 8 -25 18 -34 17 -16 20 -15 40 3 13 12 19 27 16 38 -5
14 -4 14 4 2 6 -8 9 -17 7 -21 -3 -3 4 -14 15 -24 18 -16 22 -16 42 -3 27 18
38 21 39 11 0 -5 5 -13 10 -20 11 -13 -5 -28 -20 -18 -16 9 -61 -17 -61 -35 0
-19 23 -43 32 -34 3 3 9 0 14 -7 4 -7 3 -10 -4 -5 -6 3 -13 2 -17 -4 -4 -6
-11 -7 -17 -4 -6 4 -8 2 -4 -4 3 -6 1 -14 -4 -17 -8 -5 -6 -13 4 -24 21 -24
11 -31 -41 -31 l-44 0 2 66 c3 83 -9 96 -88 99 -32 2 -63 3 -69 4 -14 1 -14
83 1 93 6 5 6 8 -2 8 -19 0 -16 27 5 36 9 4 20 6 25 6 4 -1 7 4 8 11 0 9 2 9
6 -1 2 -6 8 -10 12 -8z m-445 -98 c-3 -8 0 -17 7 -22 8 -5 10 -3 4 7 -5 8 -4
11 0 7 5 -5 9 -19 11 -31 2 -20 -1 -23 -22 -19 -25 4 -29 30 -11 60 11 16 18
15 11 -2z m96 -1 c0 -8 -4 -15 -10 -15 -5 0 -10 7 -10 15 0 8 5 15 10 15 6 0
10 -7 10 -15z"/>
<path d="M700 270 c0 -5 5 -10 11 -10 5 0 7 5 4 10 -3 6 -8 10 -11 10 -2 0 -4
-4 -4 -10z"/>
<path d="M308 158 l-3 -33 152 0 153 0 0 33 0 32 -149 0 -149 0 -4 -32z m109
-2 c3 -3 -15 -6 -41 -6 -26 0 -45 4 -42 8 6 10 73 8 83 -2z m143 5 c3 -1 -3
-5 -12 -9 -23 -9 -119 -2 -113 8 4 7 109 7 125 1z"/>
</g>
</svg>
