<?xml version="1.0" standalone="no"?>
<!DOCTYPE svg PUBLIC "-//W3C//DTD SVG 20010904//EN"
 "http://www.w3.org/TR/2001/REC-SVG-20010904/DTD/svg10.dtd">
<svg version="1.0" xmlns="http://www.w3.org/2000/svg"
 width="119.000000pt" height="98.000000pt" viewBox="0 0 119.000000 98.000000"
 preserveAspectRatio="xMidYMid meet">
<metadata>
Created by potrace 1.10, written by Peter Selinger 2001-2011
</metadata>
<g transform="translate(0.000000,98.000000) scale(0.100000,-0.100000)"
fill="#ffa200" stroke="none">
<path d="M404 896 c-11 -28 7 -36 82 -36 71 0 75 -1 69 -20 -6 -17 -2 -20 29
-20 29 0 36 4 36 20 0 17 8 19 68 22 59 3 67 5 67 23 0 19 -8 20 -173 23 -145
2 -173 0 -178 -12z m76 -11 c0 -7 3 -6 8 1 4 6 17 7 32 3 l25 -7 -25 -2 c-14
-1 -38 -3 -54 -5 -34 -5 -54 4 -35 15 17 11 49 8 49 -5z m122 0 c5 -6 8 -5 8
2 0 7 7 10 15 7 11 -5 9 -11 -11 -31 -25 -25 -26 -25 -43 -6 -10 10 -16 23
-14 30 5 13 35 12 45 -2z m115 9 c-3 -3 -12 -4 -19 -1 -8 3 -5 6 6 6 11 1 17
-2 13 -5z"/>
<path d="M430 769 c-29 -12 -40 -26 -40 -55 0 -37 -31 -54 -98 -54 -94 0 -92
5 -92 -236 0 -123 4 -213 10 -225 9 -16 22 -19 90 -19 100 0 124 -10 150 -59
11 -22 29 -45 40 -51 12 -6 86 -9 197 -8 l177 3 26 40 c14 22 36 67 49 100 34
86 44 95 107 95 79 0 84 13 83 186 0 112 -4 142 -16 157 -14 15 -36 17 -158
17 -156 0 -167 4 -184 66 -4 16 -18 35 -32 41 -29 15 -272 17 -309 2z m63 -17
c12 6 29 6 49 -1 36 -13 48 -14 31 -3 -6 4 26 6 70 4 60 -3 85 -8 94 -19 7 -9
10 -20 7 -24 -3 -5 5 -19 17 -31 12 -13 19 -16 15 -8 -4 8 1 4 13 -10 19 -25
23 -25 160 -25 76 0 143 -4 147 -8 14 -14 12 -273 -2 -292 -7 -9 -17 -14 -23
-11 -30 19 -131 -31 -131 -63 0 -7 -5 -9 -11 -5 -7 4 -7 -1 1 -16 7 -14 8 -20
1 -16 -11 7 -61 -89 -61 -119 0 -11 -5 -15 -16 -11 -8 3 -12 2 -9 -4 8 -13 -1
-13 -27 1 -15 8 -19 8 -13 0 8 -14 -229 -13 -256 0 -9 5 -21 3 -27 -3 -13 -13
-42 12 -42 36 0 9 -7 16 -15 16 -8 0 -15 7 -15 16 0 8 4 13 9 9 5 -3 12 -1 15
4 4 5 -2 8 -11 7 -10 -2 -33 3 -51 11 -17 7 -58 13 -90 12 -102 -2 -103 -2
-92 25 5 14 5 27 -1 33 -5 5 -8 77 -7 169 2 126 6 158 16 156 8 -1 11 2 7 8
-3 6 -10 8 -15 5 -5 -3 -12 -1 -15 5 -4 6 -1 9 6 8 6 -2 14 3 17 11 3 9 0 11
-8 6 -8 -5 -11 -4 -7 2 4 6 34 11 68 12 44 1 68 7 86 21 14 11 22 20 17 20 -5
0 -3 4 4 8 7 5 15 19 17 32 6 29 24 42 44 30 9 -5 23 -4 34 2z"/>
<path d="M62 588 c-14 -14 -17 -315 -3 -336 5 -8 17 -12 27 -10 16 3 19 14 22
76 3 64 5 72 22 72 16 0 20 7 20 35 0 28 -4 35 -20 35 -18 0 -20 7 -20 58 0
51 -11 82 -30 82 -3 0 -11 -5 -18 -12z m28 -49 c0 -6 -4 -7 -10 -4 -5 3 -10
11 -10 16 0 6 5 7 10 4 6 -3 10 -11 10 -16z m26 -104 c6 -15 -11 -45 -26 -45
-12 0 -20 28 -14 45 8 19 33 19 40 0z"/>
</g>
</svg>
