<?xml version="1.0" standalone="no"?>
<!DOCTYPE svg PUBLIC "-//W3C//DTD SVG 20010904//EN"
 "http://www.w3.org/TR/2001/REC-SVG-20010904/DTD/svg10.dtd">
<svg version="1.0" xmlns="http://www.w3.org/2000/svg"
 width="300.000000pt" height="199.000000pt" viewBox="0 0 300.000000 199.000000"
 preserveAspectRatio="xMidYMid meet">
<metadata>
Created by potrace 1.10, written by Peter Selinger 2001-2011
</metadata>
<g transform="translate(0.000000,199.000000) scale(0.100000,-0.100000)"
fill="#ffa200" stroke="none">
<path d="M1252 1433 c2 -20 9 -29 26 -31 24 -4 31 -22 7 -22 -9 0 -15 -10 -15
-26 0 -23 -20 -54 -34 -54 -3 0 -6 23 -6 50 l0 50 -42 0 -43 0 2 -106 2 -106
43 -2 43 -2 -3 48 c-2 26 -1 48 3 48 15 0 35 -30 35 -54 0 -16 6 -26 15 -26
24 0 17 -18 -7 -22 -16 -2 -24 -11 -26 -29 -3 -25 -2 -25 55 -23 32 1 62 3 66
3 5 1 7 11 5 24 -2 16 -11 23 -31 25 -16 2 -26 8 -24 15 2 7 16 10 33 8 74
-10 79 -8 82 27 3 30 2 32 -31 32 -31 0 -34 3 -34 30 0 27 3 30 34 30 31 0 33
2 33 33 l0 32 -60 -3 c-36 -2 -60 0 -60 6 0 6 12 12 28 14 21 2 27 8 27 28 0
24 -3 25 -63 28 l-63 3 3 -28z m88 -2 c0 -15 -19 -23 -38 -16 -14 5 -14 7 -2
15 19 12 40 13 40 1z m-133 -81 c-4 -16 -2 -32 3 -35 13 -8 1 -87 -14 -97 -23
-15 -26 -6 -26 71 0 67 3 80 18 84 9 3 19 5 21 6 2 0 1 -12 -2 -29z m161 8
l32 -1 -32 -27 c-20 -17 -28 -29 -20 -34 6 -3 9 -13 6 -20 -4 -11 24 -45 33
-38 1 1 4 -1 6 -5 1 -4 -11 -8 -28 -8 -16 0 -36 -4 -42 -8 -17 -11 -33 0 -33
20 0 9 -7 25 -17 35 -15 17 -15 19 0 36 10 10 17 28 17 40 0 16 5 20 23 16 12
-2 37 -5 55 -6z m-38 -198 c0 -5 -12 -10 -26 -10 -14 0 -23 4 -19 10 3 6 15
10 26 10 10 0 19 -4 19 -10z"/>
<path d="M1604 1445 c-9 -23 3 -45 26 -45 l21 0 -21 -22 c-11 -12 -20 -29 -20
-37 1 -13 4 -12 15 3 8 11 15 23 15 28 0 4 5 8 11 8 6 0 8 -9 4 -20 -5 -16 -2
-20 14 -20 17 0 20 5 15 30 -6 27 -4 30 18 30 21 0 25 4 24 30 -1 30 -1 30
-59 30 -42 0 -59 -4 -63 -15z m86 -13 c0 -15 -22 -30 -36 -25 -24 9 -16 33 11
33 14 0 25 -4 25 -8z"/>
<path d="M1740 1438 c0 -5 5 -8 10 -8 6 0 10 -20 10 -45 l0 -45 39 0 38 0 -1
53 0 52 -48 0 c-26 0 -48 -3 -48 -7z m70 -53 c0 -14 -4 -25 -10 -25 -5 0 -10
11 -10 25 0 14 5 25 10 25 6 0 10 -11 10 -25z"/>
<path d="M1450 1351 c0 -26 4 -30 33 -33 27 -2 32 -7 32 -28 0 -21 -5 -26 -32
-28 -29 -3 -33 -7 -33 -33 0 -16 5 -29 10 -29 6 0 10 5 10 11 0 5 19 19 43 29
34 15 71 19 190 21 l147 3 0 28 0 28 -139 0 c-142 0 -190 9 -225 42 -28 25
-36 23 -36 -11z m120 -61 c0 -5 -4 -10 -9 -10 -6 0 -13 5 -16 10 -3 6 1 10 9
10 9 0 16 -4 16 -10z m60 0 c0 -5 -5 -10 -11 -10 -5 0 -7 5 -4 10 3 6 8 10 11
10 2 0 4 -4 4 -10z"/>
<path d="M1390 1289 c0 -12 12 -16 50 -18 37 -1 50 2 50 13 0 10 -15 15 -50
18 -41 2 -50 0 -50 -13z"/>
<path d="M1610 1241 c0 -4 9 -20 21 -35 20 -25 20 -26 1 -26 -22 0 -34 -22
-26 -44 4 -11 21 -14 62 -13 56 2 57 2 56 32 -1 25 -5 29 -24 27 -20 -3 -22 0
-18 27 4 24 1 31 -13 31 -12 0 -16 -6 -12 -20 3 -11 1 -20 -5 -20 -5 0 -13 11
-16 25 -6 23 -26 36 -26 16z m78 -79 c2 -7 -7 -12 -22 -12 -27 0 -35 15 -13
23 17 7 30 3 35 -11z"/>
<path d="M1760 1198 c0 -27 -4 -48 -10 -48 -5 0 -10 -4 -10 -10 0 -5 22 -10
48 -10 l48 0 0 54 0 54 -38 4 -38 4 0 -48z m55 2 c3 -5 1 -10 -5 -10 -6 0 -9
-4 -5 -9 3 -5 1 -12 -4 -15 -8 -6 -21 15 -21 35 0 12 27 12 35 -1z"/>
<path d="M610 848 l0 -168 41 0 41 0 -4 68 -3 68 51 -4 c46 -4 52 -2 57 18 10
39 -1 51 -44 44 -55 -9 -66 -2 -61 40 l4 36 63 0 c48 0 64 4 69 16 15 40 10
43 -104 46 l-110 3 0 -167z m185 131 c-3 -4 -28 -8 -56 -7 -55 0 -78 -17 -79
-60 0 -44 17 -62 62 -62 47 0 44 -12 -3 -14 -18 -1 -35 -8 -40 -16 -16 -30
-22 -56 -20 -82 3 -38 -16 -43 -21 -5 -3 24 -3 189 1 250 1 4 37 7 81 6 44 -1
77 -5 75 -10z"/>
<path d="M1292 999 c-51 -26 -71 -67 -76 -159 -2 -48 7 -79 35 -120 23 -34 98
-53 153 -41 22 6 42 9 45 9 38 -4 41 2 41 73 0 100 -7 109 -81 109 l-61 0 7
-27 c8 -32 23 -45 45 -38 11 4 15 -3 15 -28 0 -17 5 -33 10 -35 14 -3 16 39 3
65 -13 26 -6 38 15 30 10 -4 14 -23 15 -65 0 -56 -1 -59 -24 -59 -13 0 -21 3
-18 8 6 11 -41 23 -60 16 -8 -3 -24 5 -37 19 -43 45 -29 183 19 198 24 7 63 1
91 -14 22 -11 27 -10 43 10 23 29 23 36 -4 45 -13 4 -30 9 -38 12 -41 14 -100
10 -138 -8z m24 -41 c-27 -25 -38 -44 -44 -78 -10 -59 6 -117 42 -145 16 -12
24 -25 19 -28 -12 -8 -79 37 -81 55 -7 60 -8 130 -1 134 5 3 9 13 9 22 0 23
50 72 74 72 16 0 13 -6 -18 -32z m132 13 c3 -10 0 -11 -9 -5 -8 5 -23 10 -33
11 -35 6 -32 15 3 11 19 -2 37 -9 39 -17z m-38 -131 c0 -5 -4 -10 -10 -10 -5
0 -10 5 -10 10 0 6 5 10 10 10 6 0 10 -4 10 -10z m-33 -136 c-3 -3 -12 -4 -19
-1 -8 3 -5 6 6 6 11 1 17 -2 13 -5z"/>
<path d="M1597 997 c-46 -26 -64 -67 -66 -152 -3 -129 60 -183 192 -164 36 5
75 57 87 113 6 30 8 65 5 78 -3 13 -8 31 -9 39 -8 39 -49 94 -75 100 -39 10
-104 3 -134 -14z m24 -38 c-30 -28 -39 -76 -30 -148 9 -60 29 -107 42 -95 3 3
13 1 23 -4 14 -8 13 -9 -9 -9 -15 0 -37 11 -53 28 -22 23 -28 39 -28 78 -1 27
-5 47 -10 44 -4 -3 -5 5 -1 18 4 13 11 25 16 27 4 2 5 10 2 17 -6 17 46 77 60
68 5 -3 -1 -14 -12 -24z m112 19 c15 -7 27 -19 27 -25 0 -7 5 -13 11 -13 6 0
9 -6 7 -12 -3 -7 1 -32 8 -54 7 -23 10 -45 6 -48 -3 -4 -8 -19 -9 -34 -7 -54
-63 -102 -94 -80 -11 8 -11 9 2 5 37 -12 72 63 68 148 -3 54 -7 63 -37 93 -37
34 -33 40 11 20z m-31 -26 c32 -7 42 -135 16 -189 -11 -23 -19 -28 -47 -26
-18 1 -39 10 -46 20 -17 23 -15 164 3 185 10 13 42 17 74 10z"/>
<path d="M1963 1012 c-20 -3 -34 -23 -32 -46 0 -5 -4 -12 -10 -15 -5 -4 -13
-22 -16 -40 -3 -19 -10 -42 -16 -52 -5 -11 -7 -19 -3 -19 3 0 2 -6 -3 -12 -10
-13 -33 -77 -37 -103 -1 -8 -5 -18 -9 -21 -16 -16 -5 -24 32 -24 38 0 40 2 46
38 l6 37 52 -1 c29 -1 53 -5 54 -8 19 -50 35 -66 68 -66 35 0 42 15 22 48 -5
6 -6 12 -2 12 3 0 -1 14 -10 30 -9 17 -13 30 -9 30 4 0 1 7 -6 15 -7 8 -10 15
-6 15 3 0 0 16 -8 35 -8 19 -13 35 -10 35 3 0 -1 10 -8 23 -7 12 -13 27 -14
32 0 6 -2 13 -4 18 -3 8 -7 24 -9 35 -1 7 -30 9 -68 4z m67 -84 c10 -31 15
-60 12 -63 -3 -3 -1 -5 5 -5 10 0 41 -104 32 -106 -2 0 2 -9 10 -18 11 -13 11
-20 3 -28 -9 -9 -12 -8 -12 2 -1 25 -47 70 -72 70 -22 1 -22 2 5 16 22 12 27
19 21 37 -4 12 -8 32 -9 44 -1 13 -5 26 -8 30 -4 3 -7 14 -7 24 0 23 -24 30
-47 14 -18 -13 -20 -12 -19 6 1 24 24 40 50 37 13 -2 24 -20 36 -60z m-37 -18
c3 -19 10 -50 16 -67 l10 -33 -41 0 c-34 0 -39 3 -33 18 4 9 12 35 17 57 19
80 23 82 31 25z m-53 -25 c0 -8 -4 -15 -10 -15 -5 0 -10 7 -10 15 0 8 5 15 10
15 6 0 10 -7 10 -15z m-15 -54 c-3 -20 0 -31 10 -35 8 -3 15 -10 15 -15 0 -6
-7 -8 -15 -5 -10 4 -20 -6 -32 -30 -22 -48 -49 -51 -29 -3 8 17 22 51 32 75
20 49 26 54 19 13z"/>
<path d="M2258 1012 l-118 -3 0 -29 c0 -29 2 -30 43 -30 l42 0 -3 -135 -3
-135 40 0 41 0 0 135 0 135 34 0 c19 0 38 6 43 13 11 17 14 45 5 49 -4 2 -60
2 -124 0z m-58 -32 c0 -5 -4 -10 -9 -10 -6 0 -13 5 -16 10 -3 6 1 10 9 10 9 0
16 -4 16 -10z m150 0 c0 -5 -10 -10 -22 -10 -45 0 -49 -11 -49 -116 0 -120 -5
-155 -24 -148 -11 5 -14 33 -14 127 1 99 -2 123 -15 133 -28 20 -18 24 54 24
40 0 70 -4 70 -10z"/>
<path d="M953 993 c-12 -2 -25 -13 -28 -24 -4 -11 -24 -31 -45 -45 -38 -25
-39 -27 -23 -50 16 -25 24 -24 60 9 13 11 24 19 26 16 1 -2 1 -39 -1 -81 l-4
-78 -33 0 c-34 0 -45 -12 -37 -42 4 -16 17 -18 102 -18 101 0 112 4 102 43 -3
11 -14 17 -33 17 l-28 0 -3 127 c-3 136 -3 136 -55 126z m35 -128 c-1 -72 -4
-103 -12 -99 -6 3 3 -8 21 -24 l31 -30 -37 -4 c-20 -2 -50 -1 -66 2 l-30 6 33
7 c29 6 32 10 32 44 0 21 3 54 6 73 5 27 1 41 -15 60 -20 23 -22 24 -34 8 -8
-10 -16 -15 -19 -13 -9 9 56 75 74 75 15 0 17 -13 16 -105z"/>
<path d="M1346 621 c-4 -7 -5 -15 -2 -18 9 -9 19 4 14 18 -4 11 -6 11 -12 0z"/>
<path d="M2096 621 c-4 -7 -5 -15 -2 -18 9 -9 19 4 14 18 -4 11 -6 11 -12 0z"/>
<path d="M790 614 c0 -3 10 -19 21 -36 16 -22 24 -26 30 -17 5 9 11 10 21 2
10 -8 19 -3 36 18 12 15 18 30 13 34 -6 3 -15 -4 -21 -15 -6 -11 -16 -20 -22
-20 -7 0 -6 5 2 15 7 9 9 19 5 23 -4 4 -10 1 -12 -6 -4 -10 -8 -10 -19 -1 -16
13 -19 -2 -3 -18 6 -6 7 -13 1 -17 -5 -3 -15 6 -22 19 -12 23 -30 34 -30 19z"/>
<path d="M932 585 c0 -22 2 -32 5 -22 3 11 14 17 33 17 19 0 30 -6 33 -17 3
-10 5 0 5 22 0 22 -2 32 -5 23 -3 -12 -14 -18 -33 -18 -19 0 -30 6 -33 18 -3
9 -5 -1 -5 -23z"/>
<path d="M1033 604 c-11 -30 2 -48 37 -48 32 -1 35 1 35 28 0 25 -4 29 -33 31
-21 2 -35 -2 -39 -11z m67 -19 c0 -10 -10 -15 -30 -15 -20 0 -30 5 -30 15 0
10 10 15 30 15 20 0 30 -5 30 -15z"/>
<path d="M1170 585 c0 -22 4 -34 10 -30 6 3 10 17 10 30 0 13 -4 27 -10 30 -6
4 -10 -8 -10 -30z"/>
<path d="M1237 612 c-47 -4 -45 -24 4 -33 l34 -6 -37 -2 c-21 0 -38 -6 -38
-12 0 -6 16 -9 37 -7 27 2 39 8 41 21 3 14 -4 17 -35 19 l-38 1 45 6 c53 7 42
18 -13 13z"/>
<path d="M1380 608 c0 -5 7 -8 15 -8 9 0 15 -9 15 -25 0 -14 5 -25 11 -25 7 0
9 10 5 25 -5 20 -3 25 14 25 11 0 20 3 20 8 0 4 -18 7 -40 7 -22 0 -40 -3 -40
-7z"/>
<path d="M1479 592 c-3 -18 -2 -35 3 -38 4 -3 8 2 8 10 0 23 57 22 63 -1 3
-10 5 0 5 22 0 22 -2 32 -5 23 -3 -12 -14 -18 -33 -18 -19 0 -30 6 -32 18 -3
10 -6 3 -9 -16z"/>
<path d="M1613 613 c-38 -4 -43 -7 -43 -29 0 -20 5 -24 29 -24 16 0 36 -3 45
-6 9 -3 16 -1 16 5 0 6 -17 12 -37 12 -37 1 -38 1 -8 9 l30 7 -30 5 c-28 5
-28 5 8 7 20 0 37 6 37 11 0 6 -1 9 -2 8 -2 -1 -22 -3 -45 -5z"/>
<path d="M1741 608 c-43 -16 -15 -60 32 -51 33 6 37 33 5 32 -22 0 -22 -1 -3
-9 17 -8 16 -9 -8 -7 -39 3 -39 21 1 25 17 2 32 7 32 12 0 10 -30 9 -59 -2z"/>
<path d="M1823 604 c-11 -30 2 -48 37 -48 32 -1 35 1 35 28 0 25 -4 29 -33 31
-21 2 -35 -2 -39 -11z m67 -19 c0 -10 -10 -15 -30 -15 -20 0 -30 5 -30 15 0
10 10 15 30 15 20 0 30 -5 30 -15z"/>
<path d="M1930 589 c-12 -16 -19 -33 -15 -37 4 -4 10 -1 12 6 3 6 15 12 28 12
13 0 25 -6 28 -12 2 -7 8 -10 12 -6 4 4 -4 21 -18 38 l-26 30 -21 -31z"/>
<path d="M1990 608 c0 -5 9 -8 19 -8 14 0 21 -8 24 -27 l4 -28 2 28 c1 20 6
27 21 27 11 0 20 3 20 8 0 4 -20 7 -45 7 -25 0 -45 -3 -45 -7z"/>
<path d="M2130 605 c-10 -12 -5 -13 27 -10 21 2 30 2 21 -1 -11 -3 -18 -15
-17 -27 1 -17 2 -18 6 -4 2 9 13 17 24 17 17 0 29 29 12 31 -5 0 -20 2 -35 4
-15 2 -32 -3 -38 -10z"/>
</g>
</svg>
