 <svg  version="1.0" xmlns="http://www.w3.org/2000/svg"  width="102.000000pt" height="82.000000pt" viewBox="0 0 102.000000 82.000000"  preserveAspectRatio="xMidYMid meet">  <g transform="translate(0.000000,82.000000) scale(0.100000,-0.100000)" fill="#ffa200" stroke="none"> <path d="M460 730 c-41 -41 -10 -120 46 -120 29 0 74 41 74 68 0 59 -79 93 -120 52z m88 -12 c30 -30 2 -88 -43 -88 -44 0 -62 49 -32 88 12 15 59 16 75 0z"/> <path d="M280 680 c-24 -24 -25 -48 -4 -78 18 -26 50 -28 82 -6 26 18 28 50 6 82 -19 28 -57 29 -84 2z m64 -6 c29 -11 17 -74 -14 -74 -33 0 -50 12 -50 34 0 37 27 54 64 40z"/> <path d="M658 683 c-26 -31 -29 -42 -17 -65 30 -56 90 -49 112 14 8 23 -29 68 -57 68 -13 0 -30 -8 -38 -17z m72 -23 c24 -44 -38 -83 -70 -45 -10 12 -10 21 -2 40 14 31 56 34 72 5z"/> <path d="M130 630 c-19 -19 -18 -40 3 -67 15 -20 54 -15 71 8 16 23 12 47 -12 67 -22 17 -39 15 -62 -8z m59 -14 c17 -20 2 -46 -25 -46 -29 0 -41 24 -24 45 16 19 34 19 49 1z"/> <path d="M820 632 c-18 -15 -22 -25 -16 -46 8 -31 26 -41 61 -32 33 8 44 50 20 76 -22 25 -37 25 -65 2z m55 -32 c0 -18 -6 -26 -23 -28 -13 -2 -25 3 -28 12 -10 26 4 48 28 44 17 -2 23 -10 23 -28z"/> <path d="M393 550 c-5 -18 -14 -20 -84 -20 -58 0 -80 -4 -86 -14 -6 -10 -29 -16 -72 -18 l-65 -3 -17 -70 c-17 -67 -17 -70 1 -90 13 -14 21 -45 27 -100 l8 -80 56 -3 57 -3 9 38 9 38 8 -62 7 -63 69 0 69 0 9 43 8 42 8 -68 8 -68 86 3 87 3 3 30 c1 17 5 46 9 65 l7 35 5 -40 6 -40 70 0 70 0 3 47 c3 49 22 68 22 23 0 -24 3 -25 54 -25 30 0 57 4 61 9 3 6 9 42 14 81 6 43 16 79 27 91 16 18 16 23 -1 94 l-19 75 -63 0 c-47 0 -64 4 -71 16 -8 14 -24 16 -85 15 -67 -2 -77 1 -87 19 -10 18 -20 20 -116 20 -97 0 -106 -2 -111 -20z m237 -102 l24 -97 -26 -28 c-24 -25 -28 -41 -39 -140 l-12 -113 -68 0 c-79 0 -72 -12 -88 140 -9 78 -15 98 -34 118 l-24 24 25 99 25 100 96 -3 96 -3 25 -97z m-250 60 c0 -7 -9 -46 -19 -86 l-19 -73 25 -29 c24 -29 24 -34 18 -115 l-7 -86 -57 3 -56 3 -8 90 c-7 70 -13 95 -30 113 -21 22 -21 23 -3 100 10 42 20 80 23 85 8 13 133 8 133 -5z m399 -25 c31 -129 31 -126 10 -149 -15 -16 -23 -46 -31 -118 l-11 -96 -53 0 c-30 0 -54 1 -54 3 0 1 -5 40 -10 87 -9 83 -9 85 16 111 l25 26 -20 81 c-12 44 -21 83 -21 86 0 3 31 6 70 6 l69 0 10 -37z m-567 2 c3 -3 -2 -34 -10 -70 -14 -59 -14 -66 1 -83 18 -20 21 -44 11 -116 l-7 -46 -42 0 c-41 0 -43 1 -49 37 -3 21 -6 52 -6 69 0 17 -9 42 -19 56 -18 23 -19 27 -3 91 l16 67 51 0 c29 0 54 -2 57 -5z m716 -63 c12 -56 12 -66 -1 -80 -9 -10 -18 -42 -22 -72 -12 -103 -11 -101 -58 -98 l-42 3 -7 64 c-6 54 -4 68 11 88 18 21 18 27 5 76 -23 87 -22 88 43 85 l57 -3 14 -63z"/> </g> </svg> 