<?xml version="1.0" standalone="no"?>
<!DOCTYPE svg PUBLIC "-//W3C//DTD SVG 20010904//EN"
 "http://www.w3.org/TR/2001/REC-SVG-20010904/DTD/svg10.dtd">
<svg version="1.0" xmlns="http://www.w3.org/2000/svg"
 width="100.000000pt" height="98.000000pt" viewBox="0 0 100.000000 98.000000"
 preserveAspectRatio="xMidYMid meet">
<metadata>
Created by potrace 1.10, written by Peter Selinger 2001-2011
</metadata>
<g transform="translate(0.000000,98.000000) scale(0.100000,-0.100000)"
fill="#ffa200" stroke="none">
<path d="M422 908 c-7 -10 -1 -34 25 -89 34 -74 34 -79 23 -132 l-11 -55 -39
5 c-45 6 -51 -2 -70 -95 -12 -62 -8 -72 25 -72 19 0 26 8 34 38 6 20 11 43 11
50 0 13 25 15 81 6 36 -6 37 -7 56 -83 14 -58 23 -77 38 -79 22 -5 46 23 38
44 -3 7 -13 50 -22 94 -14 62 -16 91 -8 124 l10 44 34 -21 34 -20 35 34 c19
18 34 39 34 46 0 24 -28 26 -56 4 l-26 -20 -38 24 c-20 13 -54 27 -74 30 -32
6 -40 15 -69 68 -34 64 -47 76 -65 55z m52 -79 c-3 -5 -10 -7 -15 -3 -5 3 -7
9 -4 14 3 4 -2 13 -10 20 -8 7 -15 17 -15 23 0 5 11 -2 25 -17 14 -15 23 -32
19 -37z m60 -56 c19 -9 33 -20 30 -25 -3 -4 2 -5 10 -2 9 3 13 11 9 18 -3 6 7
0 23 -14 16 -14 31 -27 34 -28 3 -2 -6 -2 -20 0 -14 2 -24 9 -22 16 1 8 -2 11
-8 7 -7 -4 -7 -12 0 -25 8 -16 6 -22 -9 -32 -10 -6 -17 -18 -14 -26 5 -11 7
-11 15 0 7 9 8 7 3 -7 -11 -29 -13 -75 -4 -75 4 0 5 -9 2 -20 -3 -11 0 -20 6
-20 5 0 8 -6 5 -13 -3 -8 0 -26 6 -41 8 -21 7 -27 -2 -24 -18 6 -40 52 -27 57
5 1 2 10 -8 18 -10 8 -12 12 -5 8 6 -3 12 -1 12 4 0 6 -7 11 -15 11 -8 0 -14
6 -12 13 1 8 -10 12 -35 11 -22 -1 -38 3 -38 10 0 6 -5 4 -10 -4 -5 -8 -10
-10 -10 -4 0 14 -47 6 -57 -9 -3 -6 -1 -7 5 -3 17 10 3 -56 -14 -70 -8 -6 -11
-14 -7 -17 3 -4 1 -7 -5 -7 -16 0 -10 43 8 57 8 7 10 13 4 13 -8 0 -9 11 -5
33 6 29 11 32 42 33 46 1 59 10 59 39 0 13 4 26 10 30 12 7 9 88 -5 97 -19 14
14 8 49 -9z m169 -54 c-4 -15 -8 -17 -14 -8 -6 11 4 28 18 29 0 0 -1 -9 -4
-21z m-28 -8 c3 -5 0 -13 -6 -17 -8 -5 -9 -3 -4 6 6 10 4 12 -9 7 -10 -4 -15
-3 -11 3 8 13 22 13 30 1z m-65 -267 c0 -3 -7 -12 -15 -20 -12 -13 -15 -13
-15 -1 0 7 3 17 7 20 8 8 23 9 23 1z"/>
<path d="M535 886 c-13 -19 -13 -28 -4 -49 25 -55 99 -37 99 24 0 50 -67 67
-95 25z m68 -5 c5 0 -1 -15 -13 -32 -25 -34 -32 -32 -35 9 -2 29 2 31 48 23z
m-2 -54 c-10 -9 -11 -8 -5 6 3 10 9 15 12 12 3 -3 0 -11 -7 -18z"/>
<path d="M304 572 c-6 -4 -14 -36 -17 -71 -8 -74 -19 -91 -58 -91 -35 0 -44
-14 -94 -135 -20 -50 -46 -111 -57 -137 -24 -53 -19 -81 14 -76 17 2 28 18 47
68 13 36 25 66 27 68 1 2 14 -4 28 -13 23 -15 24 -21 19 -66 -5 -40 -3 -50 11
-55 26 -10 43 15 49 72 5 45 3 54 -17 73 -12 12 -25 19 -28 16 -3 -4 11 29 32
71 22 42 41 91 44 108 3 17 11 59 17 94 12 62 6 89 -17 74z m-29 -181 c3 -5
-2 -14 -11 -19 -9 -5 -18 -25 -20 -45 -2 -20 -9 -47 -16 -59 -7 -13 -13 -27
-13 -33 -2 -18 15 -45 26 -42 27 5 19 -87 -8 -97 -12 -5 -13 -4 -5 7 16 19 7
55 -19 84 -27 28 -55 30 -64 4 -3 -11 -13 -22 -21 -25 -8 -3 -13 -10 -10 -15
8 -12 -22 -81 -34 -81 -6 0 -10 7 -10 15 0 8 5 15 11 15 5 0 7 5 4 10 -3 6 -1
10 4 10 6 0 10 3 10 7 -3 20 3 35 21 53 11 11 15 20 8 20 -6 0 -3 9 7 20 10
11 15 20 10 20 -4 0 0 11 8 24 9 12 19 39 22 60 5 22 13 36 22 36 9 0 13 6 10
14 -3 8 -4 16 -2 18 9 8 64 8 70 -1z"/>
<path d="M217 379 c7 -7 15 -10 18 -7 3 3 -2 9 -12 12 -14 6 -15 5 -6 -5z"/>
<path d="M157 233 c3 -7 6 -13 8 -13 2 0 5 6 8 13 3 8 -1 14 -8 14 -7 0 -11
-6 -8 -14z"/>
<path d="M186 232 c-3 -5 10 -23 28 -41 21 -21 33 -27 33 -17 0 8 -3 13 -7 11
-10 -6 -52 40 -43 48 3 4 4 7 0 7 -3 0 -8 -4 -11 -8z"/>
<path d="M676 531 c-39 -43 14 -108 68 -83 29 13 38 43 22 74 -16 31 -65 36
-90 9z m54 1 c0 -5 -7 -9 -15 -9 -8 0 -12 4 -9 9 3 4 9 8 15 8 5 0 9 -4 9 -8z
m14 -23 c-3 -5 1 -9 8 -10 10 0 10 -2 1 -6 -7 -2 -13 -11 -13 -19 0 -8 -7 -14
-16 -14 -9 0 -12 5 -8 12 5 8 2 9 -9 5 -10 -3 -17 -3 -18 1 0 4 -2 14 -4 22
-2 11 7 15 31 16 18 1 31 -3 28 -7z"/>
<path d="M718 493 c7 -3 16 -2 19 1 4 3 -2 6 -13 5 -11 0 -14 -3 -6 -6z"/>
<path d="M178 528 c-9 -7 -19 -23 -23 -35 -12 -43 65 -85 92 -50 44 56 -14
128 -69 85z m60 -21 c16 -12 -3 -38 -23 -31 -7 3 -16 1 -20 -5 -4 -7 0 -8 11
-4 13 5 15 3 9 -7 -6 -10 -4 -12 9 -7 9 4 15 3 11 -2 -11 -18 -47 -7 -56 17
-15 40 25 66 59 39z"/>
<path d="M185 490 c-3 -6 1 -7 9 -4 18 7 21 14 7 14 -6 0 -13 -4 -16 -10z"/>
<path d="M508 485 c-3 -3 -3 -34 -1 -69 l5 -63 -63 -6 c-79 -7 -90 1 -82 59 5
40 4 44 -15 44 -17 0 -21 -9 -27 -51 -7 -51 -7 -51 39 -98 31 -32 46 -55 46
-73 0 -24 -4 -27 -42 -30 l-43 -3 -3 -63 c-2 -51 0 -63 14 -69 22 -8 43 20 36
52 -4 24 -3 25 51 25 l56 0 3 -38 3 -37 55 -3 c30 -1 62 2 70 8 23 15 -1 44
-39 48 l-31 3 0 79 c0 43 5 82 10 85 12 8 5 140 -9 178 -10 26 -21 33 -33 22z
m28 -51 c1 -9 0 -13 -4 -10 -3 4 -7 14 -8 22 -1 9 0 13 4 10 3 -4 7 -14 8 -22z
m-192 -70 c3 -8 2 -12 -4 -9 -6 3 -10 10 -10 16 0 14 7 11 14 -7z m190 -31
c-3 -54 -3 -55 -12 -49 -4 2 -6 -29 -4 -70 3 -47 0 -74 -6 -74 -6 0 -14 5 -17
10 -4 6 -11 8 -16 5 -5 -4 -17 -2 -26 3 -10 6 -26 6 -40 1 -15 -5 -23 -5 -23
2 0 6 -7 3 -16 -5 -8 -9 -20 -16 -25 -16 -5 0 -9 -5 -9 -11 0 -5 5 -7 11 -3 8
4 8 0 0 -15 -15 -27 -16 -27 -19 9 -2 23 2 30 15 31 17 1 17 2 0 6 -30 8 -13
28 24 28 19 0 45 8 59 19 15 11 18 16 7 12 -15 -5 -16 -3 -7 14 9 17 4 27 -37
66 -26 26 -38 41 -26 35 25 -13 66 -15 77 -4 11 11 40 10 48 -2 5 -6 8 -5 8 3
0 7 4 11 9 8 11 -7 23 22 14 36 -3 6 -2 8 4 5 5 -3 9 -23 7 -44z m16 -234 c0
-4 7 -6 15 -3 10 4 15 0 14 -12 0 -11 -3 -14 -5 -7 -4 9 -13 9 -31 2 -20 -7
-28 -6 -35 3 -11 18 -10 30 2 23 6 -3 10 -2 10 4 0 6 7 8 15 5 8 -4 15 -10 15
-15z"/>
<path d="M407 462 c-20 -22 -22 -63 -5 -80 20 -20 65 -14 82 10 21 30 20 44
-4 68 -25 25 -52 26 -73 2z m67 -29 c9 -22 -3 -36 -26 -30 -16 5 -17 3 -7 -9
9 -12 9 -13 -2 -9 -8 3 -19 17 -26 32 -7 14 -10 23 -7 20 4 -3 13 0 20 8 17
16 40 11 48 -12z"/>
<path d="M702 404 c-31 -19 -53 -24 -84 -22 -74 6 -56 -33 22 -45 24 -4 40 -1
52 10 10 9 20 14 22 12 1 -2 10 -31 18 -65 l15 -60 -34 -22 c-38 -25 -39 -30
-17 -101 13 -44 18 -52 37 -49 20 3 22 9 22 61 0 33 -3 61 -6 63 -10 6 -20
-26 -12 -38 4 -7 1 -8 -7 -3 -10 6 -12 4 -6 -11 14 -34 15 -53 4 -60 -7 -4 -8
-2 -4 4 4 7 2 12 -5 12 -6 0 -9 8 -6 20 3 11 1 20 -4 20 -4 0 -7 13 -6 29 1
16 6 27 11 24 4 -3 12 0 16 8 7 10 11 10 24 0 12 -10 19 -11 30 -2 11 9 19 3
40 -33 25 -43 78 -96 96 -96 5 0 14 9 20 19 8 16 4 26 -26 58 -46 49 -48 52
-74 158 -31 128 -63 154 -138 109z m60 -11 c14 -12 18 -13 18 -3 0 24 24 -7
26 -33 1 -12 5 -31 10 -41 5 -13 4 -17 -4 -12 -8 5 -8 -1 -1 -24 6 -16 14 -28
18 -26 4 3 8 -8 9 -24 3 -33 46 -103 56 -92 4 3 4 -2 0 -12 -5 -13 -4 -17 3
-13 6 4 16 0 22 -7 9 -10 9 -16 1 -21 -6 -4 -14 -4 -17 -1 -4 3 -1 6 6 6 7 0
9 5 6 10 -4 6 -11 8 -16 5 -5 -4 -12 1 -15 9 -3 9 -11 13 -17 9 -6 -4 -8 0 -4
10 4 11 1 17 -8 17 -8 0 -15 8 -15 19 0 24 -42 52 -61 41 -19 -12 -30 9 -17
33 7 14 7 22 -1 26 -6 4 -12 25 -14 47 -2 39 -23 67 -42 57 -5 -4 -1 3 10 15
25 26 24 26 47 5z"/>
<path d="M784 234 c-18 -14 -18 -15 4 -4 12 6 22 13 22 15 0 8 -5 6 -26 -11z"/>
</g>
</svg>
