<?xml version="1.0" standalone="no"?>
<!DOCTYPE svg PUBLIC "-//W3C//DTD SVG 20010904//EN"
 "http://www.w3.org/TR/2001/REC-SVG-20010904/DTD/svg10.dtd">
<svg version="1.0" xmlns="http://www.w3.org/2000/svg"
 width="105.000000pt" height="77.000000pt" viewBox="0 0 105.000000 77.000000"
 preserveAspectRatio="xMidYMid meet">
<metadata>
Created by potrace 1.10, written by Peter Selinger 2001-2011
</metadata>
<g transform="translate(0.000000,77.000000) scale(0.100000,-0.100000)"
fill="#ffa200" stroke="none">
<path d="M368 709 c-22 -12 -23 -42 -3 -59 8 -6 33 -10 57 -8 38 3 43 0 46
-19 3 -20 -1 -22 -60 -25 -61 -3 -64 -4 -87 -41 l-25 -38 -56 7 c-77 9 -90 -5
-90 -97 0 -57 -3 -69 -16 -69 -14 0 -16 11 -12 74 3 41 1 82 -4 90 -11 19 -44
21 -55 4 -11 -18 -13 -389 -2 -410 11 -21 44 -24 56 -5 4 6 8 52 8 101 0 61 4
90 12 93 9 3 13 -17 15 -69 l3 -73 75 -3 75 -3 55 -59 55 -58 156 -1 c202 -2
207 0 211 88 2 38 7 65 13 63 6 -2 9 -11 8 -20 -4 -41 14 -52 92 -52 62 0 76
3 84 19 12 22 10 360 -2 379 -10 15 -114 16 -151 2 -20 -7 -26 -16 -26 -40 0
-25 -4 -31 -17 -28 -10 2 -18 12 -18 23 0 32 -14 45 -50 45 -30 0 -37 5 -55
40 -20 40 -21 40 -80 40 -56 0 -60 1 -60 23 0 21 4 24 41 23 48 -1 72 22 53
52 -9 14 -29 17 -120 19 -62 2 -117 -2 -126 -8z m26 -21 c-5 -8 -2 -9 9 -5 10
3 17 3 17 -2 0 -5 -9 -11 -20 -14 -19 -5 -28 12 -13 26 10 11 15 8 7 -5z m141
2 c-3 -5 -1 -10 4 -10 6 0 11 5 11 10 0 6 5 10 11 10 5 0 7 -5 3 -12 -5 -7 -2
-9 9 -5 10 4 14 2 11 -6 -2 -7 -20 -12 -40 -13 -38 -1 -58 -19 -47 -44 3 -8 6
-22 7 -31 0 -9 6 -15 13 -12 16 6 63 -5 63 -15 0 -4 -11 -9 -25 -10 -14 -1
-25 4 -25 11 0 7 -3 8 -8 2 -4 -5 -34 -11 -67 -12 -56 -2 -61 0 -62 20 -2 20
-1 21 11 5 15 -21 28 -24 21 -5 -4 8 5 12 26 13 22 1 27 -2 17 -8 -10 -8 -10
-9 2 -5 10 2 15 17 15 44 0 23 -2 41 -5 41 -20 -1 -30 4 -25 12 3 6 -2 11 -12
12 -10 0 5 4 32 8 28 4 54 8 58 8 5 1 5 -2 2 -8z m-157 -119 c10 -6 8 -15 -12
-38 -14 -17 -26 -35 -26 -41 0 -5 -7 -13 -16 -16 -27 -10 -64 -7 -64 7 0 9 -2
9 -9 -1 -4 -8 -11 -13 -15 -13 -19 3 -24 -1 -31 -21 -3 -13 -6 -59 -6 -102 1
-53 -3 -83 -12 -88 -9 -6 -9 -8 1 -8 7 0 10 -4 7 -10 -3 -5 -11 -10 -16 -10
-6 0 -7 5 -4 10 3 6 0 10 -7 11 -8 0 -9 2 -2 5 14 6 6 50 -11 64 -9 7 -21 6
-41 -5 -16 -8 -23 -15 -16 -15 7 0 11 -4 7 -9 -3 -6 -6 -42 -6 -82 -1 -40 -4
-67 -8 -60 -14 21 -11 328 3 346 14 19 14 13 2 -97 -4 -41 -2 -47 17 -52 47
-12 61 3 62 69 0 21 5 29 15 27 11 -3 10 1 -3 16 -14 15 -15 21 -5 25 8 3 5 6
-7 7 -12 1 -7 5 14 10 19 4 50 6 69 4 19 -3 40 1 48 7 7 6 19 7 25 3 9 -5 10
-2 6 9 -4 12 -2 14 11 10 9 -3 14 -3 10 2 -4 4 -2 15 5 23 10 13 9 15 -6 9
-11 -4 -16 -3 -12 3 7 12 16 12 33 1z m246 -7 c3 -8 11 -12 17 -8 7 4 6 -2 -2
-17 -11 -22 -11 -23 5 -10 9 8 16 10 14 5 -2 -5 6 -18 18 -30 19 -19 22 -19
33 -5 6 9 9 11 6 5 -2 -7 2 -14 10 -18 8 -3 15 -13 15 -22 0 -10 3 -15 6 -11
4 3 13 0 21 -8 29 -29 72 -10 54 23 -8 15 -8 23 1 28 7 4 8 3 4 -4 -10 -17 3
-15 20 3 12 11 20 12 35 5 10 -6 19 -7 19 -2 0 5 10 8 23 6 12 -1 25 -3 30 -3
9 -1 8 -333 -2 -349 -6 -10 -77 -14 -111 -6 -8 2 -16 15 -16 29 -1 13 -8 30
-15 38 -12 11 -18 10 -37 -10 -12 -13 -17 -23 -10 -23 9 0 9 -3 0 -12 -6 -6
-13 -10 -15 -7 -10 10 -16 55 -9 65 9 14 82 26 82 13 0 -5 7 -9 15 -9 21 0 31
-30 14 -41 -11 -7 -10 -9 5 -9 11 0 16 -5 13 -14 -4 -10 0 -12 16 -8 28 7 48
27 39 37 -4 5 2 5 12 1 15 -5 17 -4 8 7 -9 10 -8 17 0 25 7 7 8 12 2 12 -5 0
-9 45 -9 108 0 111 -11 145 -44 134 -7 -2 -17 1 -21 8 -5 8 -9 7 -13 -5 -5
-10 -3 -14 4 -9 7 4 10 1 7 -7 -3 -8 -10 -13 -15 -12 -5 1 -7 -11 -5 -28 4
-29 4 -29 -48 -29 -53 0 -88 19 -74 41 4 7 3 9 -3 6 -6 -4 -16 0 -23 8 -7 8
-21 15 -31 15 -13 0 -17 5 -12 17 5 12 3 14 -8 8 -8 -4 -11 -5 -7 -1 4 5 -5
19 -20 33 -14 13 -27 31 -28 38 -3 20 22 19 30 -1z m-4 -74 c17 -33 26 -40 50
-40 28 0 30 -3 30 -35 l0 -35 85 0 85 0 0 40 c0 33 3 40 20 40 19 0 20 -7 20
-135 0 -128 -1 -135 -20 -135 -17 0 -20 7 -20 40 l0 40 -80 0 -80 0 0 -77 0
-78 -138 1 -137 2 -50 56 c-50 56 -51 56 -108 56 l-57 0 0 110 0 110 64 0 64
0 16 40 16 40 110 0 110 0 20 -40z m-397 -291 c-10 -4 -27 -8 -38 -8 -17 -1
-17 1 -5 9 13 9 13 10 0 10 -13 0 -13 2 -1 9 9 6 24 5 39 -2 22 -10 22 -12 5
-18z m44 -4 c0 -10 -10 -15 -31 -15 l-31 0 25 14 c33 19 37 19 37 1z m51 -3
c10 -10 24 -16 30 -14 7 2 11 -2 10 -9 -2 -7 3 -13 11 -14 8 0 15 -10 16 -22
1 -13 5 -26 10 -30 4 -5 5 0 2 10 -4 9 -2 17 3 17 16 0 22 -21 10 -35 -10 -12
-14 -12 -28 2 -10 9 -17 19 -18 22 -3 20 -17 40 -25 35 -5 -3 -9 -1 -9 3 0 5
-14 14 -31 20 -17 7 -28 17 -24 22 9 16 23 13 43 -7z m442 -49 c0 -5 -4 -15
-10 -23 -6 -9 -5 -17 3 -22 9 -5 9 -10 0 -19 -12 -12 -175 -15 -192 -5 -3 3
-34 1 -69 -3 -68 -8 -95 0 -74 21 10 10 17 10 32 0 23 -14 33 -16 26 -4 -3 5
20 5 51 1 35 -5 64 -4 76 3 14 7 27 7 43 -1 17 -7 24 -7 24 0 0 6 9 8 19 4 14
-4 23 0 31 15 6 11 8 20 5 20 -4 0 -3 5 0 10 7 12 35 14 35 3z"/>
<path d="M100 330 c0 -5 5 -10 10 -10 6 0 10 5 10 10 0 6 -4 10 -10 10 -5 0
-10 -4 -10 -10z"/>
</g>
</svg>
