<?xml version="1.0" standalone="no"?>
<!DOCTYPE svg PUBLIC "-//W3C//DTD SVG 20010904//EN"
 "http://www.w3.org/TR/2001/REC-SVG-20010904/DTD/svg10.dtd">
<svg version="1.0" xmlns="http://www.w3.org/2000/svg"
 width="300.000000pt" height="162.000000pt" viewBox="0 0 300.000000 162.000000"
 preserveAspectRatio="xMidYMid meet">
<metadata>
Created by potrace 1.10, written by Peter Selinger 2001-2011
</metadata>
<g transform="translate(0.000000,162.000000) scale(0.100000,-0.100000)"
fill="#ffa200" stroke="none">
<path d="M96 1604 c-5 -12 212 -14 1432 -11 l1437 2 -3 -770 c-1 -423 0 -781
3 -795 21 -83 25 62 24 732 -2 797 -2 750 2 797 5 66 109 62 -1463 60 -1204
-1 -1428 -3 -1432 -15z"/>
<path d="M10 1555 c-9 -11 -9 -19 -2 -28 7 -8 9 -79 6 -207 -6 -235 -5 -1173
0 -1249 2 -30 10 -57 18 -62 19 -13 2928 -12 2928 1 0 7 -495 10 -1466 10
l-1465 0 2 770 c1 423 0 772 -3 775 -3 3 -11 -1 -18 -10z"/>
<path d="M1144 1474 c-7 -3 -8 -19 -5 -42 6 -33 10 -37 39 -40 36 -4 45 15 10
20 -13 2 -23 10 -23 18 0 11 15 16 63 18 75 3 79 -10 16 -45 -21 -13 -38 -28
-36 -34 2 -7 -8 -10 -27 -7 -31 4 -31 4 -25 -36 3 -23 8 -48 10 -56 4 -12 3
-13 -7 -2 -18 17 -30 15 -23 -3 4 -9 0 -15 -10 -15 -13 0 -16 12 -16 70 l0 70
-70 0 -70 0 0 -166 c0 -154 1 -166 18 -159 32 14 93 16 108 4 12 -10 14 1 14
69 0 70 2 81 16 75 8 -3 13 -12 10 -20 -3 -8 -1 -11 4 -8 13 8 24 -39 16 -71
-7 -25 -5 -26 23 -21 25 5 29 3 28 -14 -1 -17 -7 -20 -34 -17 -36 4 -42 -3
-34 -47 l6 -30 86 -2 85 -1 -1 39 c0 37 -1 39 -32 39 -25 0 -33 4 -33 18 0 15
10 17 77 15 l78 -2 0 51 0 50 -42 -5 c-24 -2 -40 -1 -37 4 3 5 0 9 -5 9 -6 0
-11 14 -11 30 0 17 5 30 11 30 5 0 7 5 4 10 -4 6 11 10 37 10 l43 0 0 40 1 40
-78 0 c-63 0 -78 3 -78 15 0 9 9 15 23 15 12 0 27 4 32 8 13 9 13 72 0 73 -96
5 -152 6 -161 3z m-67 -116 c9 -7 10 -16 2 -29 -6 -13 -6 -19 1 -19 5 0 10
-13 10 -28 0 -15 5 -33 12 -40 8 -8 8 -15 0 -24 -6 -8 -12 -36 -14 -63 -3 -43
-6 -49 -29 -56 -15 -3 -32 -3 -40 1 -16 11 -20 53 -5 63 8 5 8 9 0 15 -7 4
-12 42 -13 91 -2 74 0 83 15 77 14 -5 15 -4 5 8 -9 11 -6 14 16 14 16 0 34 -5
40 -10z m169 -8 c6 -6 38 -11 72 -12 36 -1 62 -6 62 -12 0 -12 -49 -38 -59
-32 -3 2 -16 -16 -29 -41 -13 -25 -18 -42 -13 -38 6 3 11 1 11 -5 0 -22 47
-59 69 -53 16 4 21 1 21 -15 0 -26 -29 -36 -78 -27 -25 4 -43 1 -56 -8 -17
-13 -22 -12 -39 3 -10 10 -18 20 -18 22 1 1 -8 25 -18 53 -19 49 -19 50 2 67
11 10 15 18 10 18 -14 0 -3 49 16 72 17 20 32 23 47 8z m137 -177 c-7 -2 -19
-2 -25 0 -7 3 -2 5 12 5 14 0 19 -2 13 -5z m-133 -124 c0 -5 4 -8 9 -5 15 10
29 -18 20 -39 -4 -11 -8 -14 -8 -7 -1 8 -11 11 -28 8 -16 -3 -41 1 -58 8 l-30
12 30 16 c36 19 65 22 65 7z"/>
<path d="M1664 1435 c0 -36 3 -41 25 -43 32 -3 35 -7 17 -25 -8 -8 -12 -17 -9
-21 4 -3 1 -6 -5 -6 -7 0 -12 -7 -12 -15 0 -8 -5 -15 -11 -15 -5 0 -7 -4 -4
-10 9 -15 25 -12 25 4 0 8 9 24 20 37 l19 24 1 -37 c0 -34 3 -38 26 -38 25 0
26 2 22 49 l-3 49 35 6 c32 5 35 8 35 40 0 19 -4 38 -9 43 -5 5 -6 2 -1 -7 8
-13 6 -13 -7 -2 -11 9 -41 13 -91 11 l-74 -3 1 -41z m145 9 c11 -3 11 -7 1
-20 -7 -8 -19 -13 -27 -10 -9 4 -16 -5 -20 -24 -3 -17 -9 -33 -14 -36 -5 -3
-6 1 -3 9 3 9 -7 23 -25 37 -17 12 -31 28 -31 35 0 20 68 25 119 9z"/>
<path d="M1863 1442 c0 -7 6 -11 14 -8 10 4 13 -11 13 -69 l0 -75 55 0 55 0 0
79 0 79 -68 4 c-51 2 -69 0 -69 -10z m112 -21 c3 -5 1 -12 -5 -16 -6 -4 -7
-13 -1 -23 12 -24 9 -65 -6 -70 -7 -2 -13 1 -13 6 0 6 -9 8 -21 5 -19 -5 -20
-2 -16 48 3 30 6 54 6 54 15 5 51 2 56 -4z"/>
<path d="M1438 1319 c4 -37 6 -39 38 -39 23 0 37 -6 44 -20 13 -24 10 -71 -4
-69 -5 0 -13 -5 -17 -13 -5 -7 -9 -8 -9 -3 0 6 -12 11 -28 12 -26 2 -27 0 -27
-48 0 -27 3 -49 8 -49 4 0 7 4 7 9 0 14 101 75 122 74 10 -1 18 3 18 8 0 6 82
9 220 7 l220 -3 0 48 0 48 -224 -1 c-183 -1 -230 1 -254 14 -16 8 -32 12 -36
9 -3 -4 -6 -1 -6 6 0 7 -5 9 -10 6 -6 -3 -13 1 -16 9 -3 9 -10 13 -15 10 -5
-3 -9 -1 -9 4 0 6 -6 12 -13 15 -9 3 -11 -6 -9 -34z m512 -75 c32 0 45 -4 45
-15 0 -11 -26 -14 -140 -16 -77 -2 -176 -4 -220 -6 -79 -4 -81 -4 -83 20 -2
24 -1 24 91 24 140 -1 171 -2 175 -6 2 -2 15 0 28 5 16 6 24 6 24 -1 0 -6 5
-7 10 -4 6 4 8 12 4 18 -3 7 0 5 8 -4 8 -9 30 -15 58 -15z m50 22 c0 -2 -7 -6
-15 -10 -8 -3 -15 -1 -15 4 0 6 7 10 15 10 8 0 15 -2 15 -4z"/>
<path d="M1340 1225 c0 -25 1 -25 80 -25 79 0 80 0 80 25 0 25 -1 25 -80 25
-79 0 -80 0 -80 -25z"/>
<path d="M1665 1151 c-3 -6 3 -14 12 -20 10 -6 14 -11 10 -11 -4 0 1 -10 12
-22 24 -24 18 -40 -12 -36 -17 2 -22 -4 -28 -29 -4 -19 -2 -33 3 -33 5 0 6 -4
3 -10 -7 -12 154 -14 170 -2 15 10 16 55 2 64 -7 4 -24 8 -38 8 -25 0 -26 2
-21 48 4 45 3 48 -22 50 -21 1 -26 -3 -26 -21 0 -13 7 -32 15 -43 8 -10 15
-27 15 -37 0 -10 4 -16 9 -13 14 9 41 -4 41 -20 0 -9 -12 -14 -32 -15 -18 -1
-47 -2 -64 -4 -38 -3 -39 10 -1 47 l28 28 -20 21 c-11 12 -18 26 -15 31 3 4 0
8 -6 8 -6 0 -8 5 -5 10 3 6 -1 10 -9 10 -8 0 -17 -4 -21 -9z"/>
<path d="M1890 1088 c0 -39 -4 -68 -10 -68 -5 0 -10 -4 -10 -10 0 -6 28 -10
65 -10 l65 0 0 78 0 77 -55 0 -55 0 0 -67z m83 0 c4 -28 5 -54 2 -56 -2 -3
-17 -6 -33 -8 -28 -3 -28 -3 -28 48 1 49 11 63 47 67 3 1 9 -22 12 -51z"/>
<path d="M1250 818 c0 -4 -7 -4 -17 -1 -10 4 -14 2 -10 -4 4 -6 0 -14 -9 -17
-10 -4 -13 -2 -8 7 4 6 -10 -4 -31 -23 -47 -44 -88 -108 -81 -126 3 -8 1 -14
-5 -14 -7 0 -9 -10 -5 -25 4 -14 3 -25 -2 -25 -4 0 -8 -9 -8 -20 0 -11 4 -20
9 -20 5 0 6 -16 3 -35 -5 -23 -3 -35 4 -35 6 0 8 -4 5 -10 -8 -13 20 -64 53
-95 34 -33 69 -49 105 -46 15 2 27 -2 27 -8 0 -6 9 -11 21 -11 13 0 18 4 13
12 -5 8 7 10 44 5 30 -3 52 -2 52 3 0 5 6 7 14 4 8 -3 17 -1 20 5 4 6 13 8 21
4 13 -4 15 12 15 100 0 59 -5 117 -11 130 -10 22 -17 24 -87 26 -42 1 -79 4
-83 7 -4 2 -5 -5 -2 -17 4 -12 0 -25 -8 -30 -11 -7 -10 -11 6 -24 11 -9 13
-13 5 -9 -9 4 -12 3 -7 -2 9 -9 13 -10 60 -12 27 -2 28 -3 25 -53 l-3 -51 -52
-2 c-29 -1 -53 2 -53 7 0 4 -4 6 -9 2 -12 -7 -53 44 -45 56 3 5 1 9 -4 9 -6 0
-8 9 -5 20 3 11 0 20 -6 20 -7 0 -11 21 -11 55 0 30 4 55 9 55 5 0 7 9 4 20
-3 12 0 20 6 20 7 0 10 4 6 10 -3 5 7 17 22 27 29 19 153 28 153 11 0 -5 4 -7
9 -4 5 3 11 -1 15 -9 9 -24 21 -18 44 24 26 45 27 51 8 51 -8 0 -16 6 -19 14
-4 9 -14 12 -26 9 -12 -3 -21 -1 -21 5 0 6 -9 8 -20 5 -11 -3 -20 -1 -20 3 0
5 -25 9 -55 10 -30 0 -55 -3 -55 -8z m127 -29 c24 -6 40 -15 37 -20 -3 -5 1
-6 9 -3 19 7 33 -14 18 -29 -8 -8 -24 -6 -59 6 -40 15 -57 16 -95 7 -40 -8
-90 -41 -93 -60 0 -3 -6 -17 -11 -31 -13 -30 -19 -105 -11 -134 4 -11 9 -32
12 -47 3 -14 21 -42 39 -61 26 -26 41 -34 68 -33 19 1 37 -3 41 -9 5 -6 8 -6
8 2 0 9 7 10 26 3 18 -7 23 -7 18 1 -3 6 -1 15 5 19 14 8 21 76 11 105 -4 10
-22 24 -41 30 -19 7 -35 19 -37 28 -3 14 6 16 50 15 77 -2 85 -12 86 -113 0
-79 -1 -85 -25 -100 -51 -34 -243 -21 -243 16 0 5 -3 8 -7 7 -5 -2 -18 7 -30
19 -40 40 -61 183 -36 236 8 15 11 33 7 39 -4 7 -3 8 4 4 8 -5 12 0 12 13 0
12 3 21 8 21 4 0 21 13 37 28 17 16 38 32 47 38 26 14 99 16 145 3z"/>
<path d="M1710 817 c0 -5 -10 -5 -21 -2 -15 5 -19 4 -15 -4 4 -6 0 -11 -8 -11
-20 0 -77 -50 -70 -61 3 -5 -2 -9 -11 -9 -9 0 -15 -6 -14 -12 4 -32 -2 -59
-11 -53 -7 4 -9 -2 -4 -19 4 -16 2 -26 -5 -26 -6 0 -11 -19 -11 -45 0 -27 5
-45 11 -45 7 0 9 -11 5 -30 -4 -22 -2 -29 6 -24 8 5 9 2 5 -10 -4 -10 -2 -27
4 -39 17 -33 92 -98 107 -92 8 3 10 0 6 -6 -4 -8 3 -9 25 -4 20 4 31 3 31 -4
0 -6 11 -11 25 -11 14 0 25 5 25 11 0 6 9 8 20 4 11 -4 20 -2 20 4 0 6 7 8 15
5 8 -4 15 -1 15 5 0 6 6 11 13 11 18 0 49 34 40 43 -3 4 2 7 11 7 12 0 16 5
12 16 -3 8 -2 12 4 9 6 -4 10 7 10 24 0 17 3 31 8 31 4 0 7 43 7 95 0 52 -4
95 -9 95 -4 0 -6 7 -2 15 3 8 1 15 -5 15 -6 0 -7 5 -4 10 3 6 1 10 -6 10 -7 0
-10 3 -6 6 8 8 -54 75 -63 69 -4 -3 -11 2 -14 11 -4 10 -13 13 -27 9 -13 -4
-19 -3 -16 2 4 6 -17 9 -48 9 -30 -1 -55 -5 -55 -9z m110 -29 c86 -28 123 -94
122 -223 0 -73 -9 -109 -33 -129 -18 -14 -19 -18 -5 -13 14 6 11 -1 -10 -26
-16 -19 -30 -33 -32 -31 -2 1 -18 -2 -35 -8 -52 -16 -90 -16 -116 0 -13 8 -20
9 -17 3 4 -6 -8 -3 -27 6 -19 10 -33 21 -30 26 2 4 -2 7 -9 7 -7 1 -20 16 -29
35 -9 19 -12 32 -8 29 5 -3 9 -1 9 5 0 5 -4 11 -9 13 -6 2 -12 30 -14 63 -5
70 29 192 51 187 8 -1 11 2 7 8 -3 5 1 13 9 16 9 3 13 11 9 17 -4 6 0 8 10 4
10 -3 17 -2 17 2 0 5 10 7 22 3 13 -3 19 -1 15 5 -9 14 61 15 103 1z"/>
<path d="M1726 759 c3 -5 -1 -9 -9 -9 -7 0 -26 -14 -43 -31 -29 -30 -29 -31
-29 -149 0 -132 7 -148 75 -176 46 -20 86 -11 122 26 27 29 29 35 31 131 2 55
-1 103 -5 105 -5 3 -6 10 -3 15 4 5 2 17 -4 26 -7 13 -5 23 7 37 9 11 12 16 5
13 -6 -4 -13 -4 -16 0 -2 5 -2 2 -1 -4 4 -16 -1 -16 -27 -3 -26 15 -110 29
-103 19z m92 -46 c28 -27 29 -32 30 -135 1 -82 -2 -111 -13 -122 -8 -8 -15
-17 -15 -21 0 -4 -6 -12 -12 -18 -14 -13 -88 -17 -88 -5 0 5 -6 7 -12 5 -7 -1
-12 4 -10 11 1 6 -3 12 -9 12 -5 0 -7 5 -4 10 3 6 1 10 -5 10 -7 0 -9 8 -5 20
3 11 3 20 -2 20 -5 0 -9 34 -9 75 0 41 3 75 7 75 5 0 6 7 3 15 -4 8 -1 15 5
15 6 0 11 6 11 14 0 21 40 46 72 46 17 0 39 -11 56 -27z"/>
<path d="M1857 393 c3 -7 6 -13 8 -13 2 0 5 6 8 13 3 8 -1 14 -8 14 -7 0 -11
-6 -8 -14z"/>
<path d="M184 805 c-3 -6 -3 -116 -2 -245 l3 -235 63 -3 c40 -2 62 1 62 8 0 6
-5 8 -10 5 -7 -5 -10 26 -8 92 l3 98 81 0 c74 0 80 2 76 19 -3 10 1 22 9 27
10 6 10 9 2 9 -7 0 -13 9 -13 20 0 18 -6 20 -67 19 -38 0 -74 -1 -81 0 -9 1
-12 16 -10 52 l3 52 92 -2 c82 -2 93 0 102 18 6 11 11 31 11 45 l0 25 -156 3
c-100 2 -158 -1 -160 -7z m276 -26 c0 -6 4 -7 10 -4 6 3 7 -1 4 -9 -5 -13 -23
-16 -89 -16 -100 0 -117 -13 -114 -84 2 -25 6 -51 10 -58 5 -7 38 -14 79 -16
59 -4 70 -7 68 -21 -2 -12 -16 -17 -57 -18 -29 -1 -64 -9 -77 -18 -21 -14 -24
-22 -22 -75 1 -32 -1 -62 -5 -66 -3 -4 -2 -15 4 -25 5 -11 6 -20 2 -20 -42 -7
-54 -5 -49 7 3 8 1 14 -4 14 -8 0 -12 397 -4 412 7 11 244 8 244 -3z"/>
<path d="M2155 812 c2 -2 -12 -47 -30 -100 -19 -52 -32 -99 -29 -104 3 -4 0
-8 -6 -8 -6 0 -8 -4 -5 -10 3 -5 1 -10 -5 -10 -7 0 -10 -7 -6 -15 3 -8 1 -15
-5 -15 -6 0 -9 -7 -5 -15 3 -8 1 -15 -4 -15 -5 0 -7 -7 -4 -15 4 -8 1 -15 -5
-15 -6 0 -8 -7 -5 -15 4 -8 1 -15 -6 -15 -6 0 -9 -4 -6 -8 3 -5 -4 -32 -14
-61 -22 -55 -26 -86 -10 -61 5 8 10 10 10 4 0 -6 20 -11 45 -12 24 0 44 3 43
6 -1 4 4 31 12 60 l14 52 83 0 c69 0 81 -2 77 -15 -4 -8 -1 -15 6 -15 7 0 10
-7 6 -15 -3 -8 -1 -15 4 -15 5 0 7 -6 4 -14 -3 -9 3 -17 15 -21 12 -3 21 -10
21 -15 0 -8 88 -5 98 4 3 3 0 6 -6 6 -6 0 -9 7 -6 15 4 8 1 15 -6 15 -6 0 -9
3 -6 8 2 4 -15 64 -39 134 -24 70 -41 129 -37 132 3 3 0 6 -7 6 -8 0 -11 7 -7
15 3 8 1 15 -5 15 -6 0 -9 7 -5 15 3 8 1 15 -5 15 -6 0 -9 7 -5 15 3 8 1 15
-5 15 -6 0 -8 9 -4 21 5 15 4 19 -4 15 -7 -5 -10 1 -8 14 2 20 -3 22 -70 23
-39 1 -70 0 -68 -1z m114 -37 c6 -3 11 -16 11 -29 0 -12 3 -26 8 -30 4 -4 8
-12 8 -17 1 -5 3 -11 4 -14 7 -13 5 -31 -3 -43 -7 -9 -6 -11 5 -7 11 4 19 -3
27 -26 6 -17 8 -35 5 -40 -3 -5 0 -9 6 -9 6 0 9 -4 5 -9 -3 -5 -1 -12 5 -16 5
-3 10 -17 10 -31 0 -14 7 -38 15 -54 9 -17 13 -30 9 -30 -4 0 -2 -6 3 -12 21
-26 21 -54 1 -55 -22 -2 -61 33 -53 47 4 6 2 10 -2 10 -5 0 -13 10 -18 23 -9
19 -19 22 -83 25 -84 4 -153 -18 -132 -43 8 -9 8 -14 0 -17 -6 -2 -12 -12 -12
-24 -2 -14 -10 -21 -30 -22 -15 -1 -28 -1 -28 0 0 2 14 41 31 88 16 47 31 96
33 109 2 13 8 26 13 30 6 3 9 16 8 28 -1 12 2 20 6 18 4 -3 10 12 15 33 4 20
8 39 9 42 1 3 5 19 10 35 4 17 12 35 17 42 10 12 77 11 97 -2z"/>
<path d="M2208 724 c-16 -8 -28 -22 -28 -31 0 -25 -29 -113 -52 -157 -8 -15
-7 -18 5 -13 11 4 15 1 12 -12 -3 -16 4 -17 60 -16 70 1 97 17 84 50 -4 11 -8
32 -8 48 -1 15 -6 27 -12 27 -6 0 -9 6 -6 14 3 7 -1 25 -8 39 -7 15 -15 35
-17 46 -3 18 -5 18 -30 5z m20 -41 c0 -15 10 -55 21 -87 12 -33 21 -64 21 -70
0 -7 -19 -10 -53 -8 -38 3 -54 8 -54 18 0 8 4 14 8 14 4 0 5 9 2 20 -3 11 0
20 6 20 5 0 8 7 5 15 -4 8 -1 15 6 15 7 0 9 8 5 20 -4 12 -2 20 5 20 6 0 8 5
5 10 -8 13 4 52 14 46 4 -3 8 -18 9 -33z"/>
<path d="M2376 387 c3 -10 9 -15 12 -12 3 3 0 11 -7 18 -10 9 -11 8 -5 -6z"/>
<path d="M2454 767 l1 -48 60 3 60 3 -3 -202 -3 -203 58 0 58 0 -3 202 -3 203
49 -3 c34 -3 53 1 64 12 9 8 19 12 23 8 3 -4 5 10 3 31 l-3 38 -181 2 -181 2
1 -48z m308 10 c6 -9 8 -9 8 1 0 6 5 12 10 12 12 0 13 -10 1 -29 -8 -12 -12
-13 -25 -1 -14 11 -16 10 -11 -3 5 -12 0 -15 -24 -13 -57 4 -61 -11 -62 -211
l-1 -181 -25 -7 c-14 -3 -28 -3 -32 0 -3 4 -7 90 -7 192 -1 114 -6 189 -12
195 -6 6 -30 12 -53 14 -47 4 -54 7 -46 28 5 12 30 15 139 15 91 0 135 -4 140
-12z"/>
<path d="M675 786 c-11 -9 -16 -16 -12 -16 18 0 -56 -80 -94 -102 -38 -21 -50
-38 -27 -38 6 0 9 -3 5 -6 -3 -3 3 -16 15 -28 14 -15 22 -17 25 -8 3 6 9 10
13 7 5 -3 24 8 43 25 36 31 54 39 41 18 -5 -7 -8 -60 -9 -118 l0 -105 -58 0
-58 0 3 -45 3 -45 153 -3 152 -3 0 45 0 45 -46 3 -46 3 1 179 c1 98 3 183 4
189 3 18 -85 20 -108 3z m65 -26 c12 -8 15 -38 15 -170 0 -88 -4 -160 -9 -160
-18 0 47 -44 68 -45 11 -1 21 -8 21 -16 0 -11 -24 -14 -117 -16 -74 -2 -120 2
-124 8 -10 17 12 31 50 31 26 0 39 6 47 20 11 21 16 184 6 194 -4 4 -2 15 3
25 8 14 6 19 -10 24 -23 7 -102 -24 -94 -37 3 -4 0 -8 -5 -8 -6 0 -11 2 -11 4
0 2 -3 11 -6 20 -4 10 -1 16 9 16 9 0 22 9 30 20 8 11 16 17 19 14 3 -3 12 8
19 24 7 16 24 36 38 45 32 19 33 19 51 7z"/>
<path d="M1274 224 c3 -9 6 -18 6 -20 0 -2 5 -4 10 -4 6 0 10 9 10 20 0 12 -7
20 -16 20 -11 0 -14 -5 -10 -16z"/>
<path d="M2386 224 c-4 -9 -4 -19 -2 -21 8 -8 26 8 26 23 0 19 -16 18 -24 -2z"/>
<path d="M450 224 c0 -4 15 -24 34 -45 29 -32 37 -35 47 -23 10 12 13 12 24
-3 15 -20 10 -23 68 47 10 12 16 25 12 28 -3 3 -19 -9 -34 -27 -17 -20 -34
-31 -41 -26 -8 5 -7 12 6 26 9 11 14 22 11 26 -4 4 -13 -2 -21 -12 -13 -18
-13 -18 -24 1 -6 10 -14 16 -18 11 -4 -4 1 -15 10 -26 13 -14 14 -21 5 -27 -7
-4 -22 5 -38 25 -24 29 -41 39 -41 25z"/>
<path d="M658 185 c-2 -31 1 -45 9 -45 7 0 13 9 13 20 0 17 7 20 40 20 33 0
40 -3 40 -20 0 -11 5 -20 10 -20 6 0 10 21 10 46 0 27 -4 43 -10 39 -5 -3 -10
-12 -10 -18 0 -8 -15 -12 -40 -12 -32 0 -40 3 -40 17 0 38 -18 15 -22 -27z"/>
<path d="M832 223 c-27 -5 -36 -24 -28 -56 5 -20 12 -24 56 -26 45 -2 51 0 62
24 21 47 -17 71 -90 58z m78 -38 c0 -23 -4 -25 -45 -25 -37 0 -45 3 -45 18 0
27 9 32 52 32 34 0 38 -3 38 -25z"/>
<path d="M1020 185 c0 -25 5 -45 10 -45 6 0 10 20 10 45 0 25 -4 45 -10 45 -5
0 -10 -20 -10 -45z"/>
<path d="M1078 223 c-9 -2 -16 -13 -15 -24 1 -15 9 -19 42 -19 22 0 47 -5 55
-10 11 -7 -4 -10 -48 -10 -40 0 -61 -4 -57 -10 9 -14 108 -13 123 2 21 21 -14
47 -53 41 -19 -3 -35 -1 -39 6 -5 8 10 11 48 11 31 0 56 5 56 10 0 10 -78 12
-112 3z"/>
<path d="M1320 219 c0 -5 14 -9 30 -9 28 0 30 -3 30 -35 0 -19 4 -35 8 -35 4
0 6 16 4 35 -4 33 -3 35 27 35 17 0 31 4 31 9 0 5 -29 9 -65 9 -36 0 -65 -4
-65 -9z"/>
<path d="M1470 185 c0 -25 5 -45 10 -45 6 0 10 9 10 20 0 17 7 20 40 20 33 0
40 -3 40 -20 0 -11 5 -20 10 -20 6 0 10 20 10 45 0 25 -4 45 -10 45 -5 0 -10
-8 -10 -17 0 -14 -9 -18 -40 -18 -32 -1 -40 3 -40 17 0 10 -4 18 -10 18 -5 0
-10 -20 -10 -45z"/>
<path d="M1668 223 l-48 -4 0 -40 0 -39 60 0 c33 0 60 4 60 10 0 6 -25 10 -55
10 -62 0 -76 15 -18 18 52 4 55 12 5 12 -23 0 -42 5 -42 10 0 6 25 10 55 10
30 0 55 5 55 10 0 6 -6 9 -12 8 -7 -1 -34 -3 -60 -5z"/>
<path d="M1863 218 c-25 -6 -33 -14 -33 -31 0 -29 24 -43 82 -46 46 -2 48 -2
39 21 -5 14 -18 24 -32 25 l-24 3 23 -10 c33 -14 27 -20 -18 -20 -27 0 -43 5
-47 15 -8 22 -1 26 59 35 29 4 49 9 43 10 -29 6 -63 6 -92 -2z"/>
<path d="M2010 223 c-16 -6 -40 -32 -40 -44 0 -29 62 -49 104 -33 16 6 24 73
9 75 -5 0 -19 2 -33 3 -14 2 -32 1 -40 -1z m68 -40 c3 -21 -1 -23 -42 -23 -42
0 -46 2 -46 24 0 21 4 23 43 22 36 -1 42 -4 45 -23z"/>
<path d="M2165 217 c-31 -36 -55 -77 -45 -77 6 0 13 7 16 15 4 9 19 15 39 15
20 0 35 -6 39 -15 5 -15 26 -21 26 -7 -1 4 -10 18 -21 31 -17 20 -22 22 -29
11 -5 -8 -13 -11 -17 -6 -4 5 -2 11 5 13 13 5 17 33 5 33 -5 -1 -13 -6 -18
-13z"/>
<path d="M2234 219 c-3 -5 9 -9 25 -9 29 0 31 -3 31 -35 0 -19 5 -35 11 -35 7
0 10 14 7 35 -4 31 -1 35 19 35 13 0 23 4 23 9 0 11 -109 11 -116 0z"/>
<path d="M2455 222 c-22 -5 -36 -22 -29 -34 9 -13 24 -9 24 7 0 11 11 15 40
15 22 0 40 -4 40 -10 0 -5 -11 -10 -25 -10 -14 0 -25 -4 -25 -10 0 -10 59 -3
72 9 24 21 -43 43 -97 33z"/>
<path d="M2480 150 c0 -5 5 -10 10 -10 6 0 10 5 10 10 0 6 -4 10 -10 10 -5 0
-10 -4 -10 -10z"/>
</g>
</svg>
